<svg width="40" height="40" viewBox="0 0 40 40" fill="none" xmlns="http://www.w3.org/2000/svg">
<g clip-path="url(#clip0_89_685)">
<path d="M19.9911 5.05033e-05C20.1045 -0.00118385 20.217 0.02022 20.322 0.0630083C20.427 0.105797 20.5225 0.169109 20.6027 0.249238L25.9609 5.60823H33.5394C33.7653 5.60834 33.9819 5.69811 34.1417 5.85782C34.3014 6.01753 34.3912 6.23412 34.3914 6.46V14.0387L39.7503 19.3971C39.9101 19.5569 39.9999 19.7737 39.9999 19.9997C39.9999 20.2258 39.9101 20.4425 39.7503 20.6024L34.3914 25.9609V33.5394C34.3912 33.7653 34.3014 33.9819 34.1417 34.1416C33.9819 34.3013 33.7653 34.3911 33.5394 34.3912H25.9609L20.6027 39.7502C20.5235 39.8294 20.4296 39.8922 20.3262 39.935C20.2227 39.9779 20.1119 39.9999 20 39.9999C19.888 39.9999 19.7772 39.9779 19.6737 39.935C19.5703 39.8922 19.4764 39.8294 19.3972 39.7502L14.0383 34.3912H6.46046C6.23449 34.3912 6.01776 34.3015 5.85791 34.1418C5.69806 33.9821 5.60817 33.7654 5.60802 33.5394V25.9609L0.249605 20.6024C0.0897844 20.4425 0 20.2258 0 19.9997C0 19.7737 0.0897844 19.5569 0.249605 19.3971L5.60802 14.0387V6.46C5.60817 6.23403 5.69806 6.01736 5.85791 5.85764C6.01776 5.69791 6.23449 5.6082 6.46046 5.60823H14.0389L19.3972 0.249238C19.555 0.091695 19.7682 0.00223874 19.9911 5.05033e-05ZM19.9998 2.05732L14.9945 7.06275C14.9153 7.14194 14.8214 7.20477 14.7179 7.24764C14.6145 7.29051 14.5037 7.31259 14.3917 7.31261H7.31275V14.3916C7.31275 14.5036 7.2907 14.6144 7.24786 14.7178C7.20502 14.8213 7.14223 14.9152 7.06308 14.9944L2.0577 19.9998L7.06308 25.0052C7.2229 25.1651 7.31271 25.3818 7.31275 25.6078V32.687H14.3917C14.6175 32.6872 14.8341 32.777 14.9938 32.9367L19.9998 37.9421L25.0052 32.9367C25.0844 32.8575 25.1783 32.7947 25.2817 32.7519C25.3852 32.7091 25.496 32.687 25.6079 32.687H32.6869V25.6078C32.687 25.3818 32.7768 25.165 32.9367 25.0052L37.9419 19.9998L32.9367 14.9944C32.8575 14.9152 32.7947 14.8213 32.7518 14.7179C32.709 14.6144 32.6869 14.5036 32.6869 14.3916V7.31261H25.6079C25.496 7.31259 25.3851 7.29051 25.2817 7.24764C25.1783 7.20477 25.0843 7.14194 25.0052 7.06275L19.9998 2.05732ZM20.0137 9.34657C20.2349 9.35006 20.4461 9.43942 20.6026 9.59577L23.2237 12.2173H26.9303C27.1562 12.2174 27.3728 12.3072 27.5326 12.4669C27.6923 12.6266 27.7821 12.8432 27.7823 13.0691V16.776L30.4031 19.3971C30.5629 19.5569 30.6527 19.7737 30.6527 19.9997C30.6527 20.2258 30.5629 20.4425 30.4031 20.6024L27.7823 23.2235V26.9303C27.7821 27.1562 27.6923 27.3728 27.5326 27.5325C27.3728 27.6922 27.1562 27.782 26.9303 27.7821H23.2236L20.6026 30.4039C20.5235 30.483 20.4295 30.5458 20.3261 30.5886C20.2226 30.6315 20.1118 30.6535 19.9999 30.6535C19.8879 30.6535 19.7771 30.6315 19.6737 30.5886C19.5702 30.5458 19.4763 30.483 19.3971 30.4039L16.7762 27.7821H13.0694C12.8434 27.7821 12.6267 27.6924 12.4669 27.5327C12.307 27.373 12.2171 27.1563 12.217 26.9303V23.2235L9.59593 20.6024C9.43611 20.4425 9.34632 20.2258 9.34632 19.9997C9.34632 19.7737 9.43611 19.5569 9.59593 19.3971L12.217 16.776V13.0691C12.2171 12.8431 12.307 12.6265 12.4669 12.4668C12.6267 12.307 12.8434 12.2173 13.0694 12.2173H16.7762L19.3971 9.59577C19.5549 9.43822 19.7681 9.34876 19.991 9.34657C19.9986 9.34647 20.0061 9.34647 20.0136 9.34657H20.0137ZM19.9998 11.4038L17.7319 13.6719C17.6527 13.751 17.5588 13.8139 17.4553 13.8567C17.3519 13.8996 17.2411 13.9217 17.1291 13.9217H13.9218V17.1291C13.9217 17.3551 13.8319 17.5718 13.6721 17.7316L11.404 19.9998L13.6721 22.2678C13.7513 22.347 13.814 22.4409 13.8569 22.5444C13.8997 22.6478 13.9218 22.7586 13.9218 22.8706V26.0779H17.1291C17.241 26.0779 17.3519 26.1 17.4553 26.1428C17.5587 26.1856 17.6527 26.2484 17.7318 26.3276L19.9998 28.5956L22.2678 26.3276C22.347 26.2484 22.4409 26.1856 22.5443 26.1428C22.6478 26.1 22.7586 26.0779 22.8705 26.0779H26.0778V22.8706C26.0779 22.7586 26.0999 22.6478 26.1428 22.5443C26.1857 22.4409 26.2485 22.347 26.3277 22.2678L28.5957 19.9998L26.3277 17.7316C26.1678 17.5719 26.0779 17.3551 26.0778 17.1291V13.9217H22.8705C22.7586 13.9217 22.6477 13.8996 22.5443 13.8567C22.4409 13.8139 22.3469 13.751 22.2678 13.6719L19.9998 11.4038Z" fill="black"/>
</g>
<defs>
<clipPath id="clip0_89_685">
<rect width="40" height="40" fill="white"/>
</clipPath>
</defs>
</svg>
