<svg width="40" height="40" viewBox="0 0 40 40" fill="none" xmlns="http://www.w3.org/2000/svg">
<path d="M27.7088 35.1562H12.3696V38.6719H27.7088V35.1562Z" stroke="black" stroke-width="1.17188" stroke-miterlimit="10" stroke-linecap="round" stroke-linejoin="round"/>
<path d="M17.9211 7.73438C17.8664 8.48516 17.6797 9.10156 17.4094 9.60938C16.55 11.2242 14.8461 11.7266 13.8703 11.8828C13.4289 11.9531 13.1367 11.9531 13.1367 11.9531C13.1367 11.9531 7.73438 11.9531 7.73438 6.67969C7.73438 1.40625 13.1367 1.40625 13.1367 1.40625H26.9414C26.9414 1.40625 32.3438 1.40625 32.3438 6.67969C32.3438 11.9531 26.9414 11.9531 26.9414 11.9531C26.9414 11.9531 26.6492 11.9531 26.2078 11.8828C25.232 11.7266 23.5281 11.2242 22.6688 9.60938C22.3984 9.10156 22.2117 8.48516 22.157 7.73438" stroke="black" stroke-width="1.17188" stroke-miterlimit="10" stroke-linecap="round" stroke-linejoin="round"/>
<path d="M11.8896 6.725C11.8896 4.11484 14.6365 4.04297 14.6365 4.04297C17.9381 4.04297 17.9381 7.26562 17.9381 7.26562C17.9381 7.42734 17.9326 7.58359 17.9209 7.73438M22.1568 7.73438C22.1451 7.58359 22.1396 7.42734 22.1396 7.26562C22.1396 7.26562 22.1396 4.04297 25.4412 4.04297C25.4412 4.04297 28.1881 4.11484 28.1881 6.725L22.1568 7.73438Z" stroke="black" stroke-width="1.17188" stroke-miterlimit="10" stroke-linecap="round" stroke-linejoin="round"/>
<path d="M23.04 31.6406V15.4688" stroke="black" stroke-width="1.17188" stroke-miterlimit="10" stroke-linecap="round" stroke-linejoin="round"/>
<path d="M20.0391 31.6406V15.4688" stroke="black" stroke-width="1.17188" stroke-miterlimit="10" stroke-linecap="round" stroke-linejoin="round"/>
<path d="M17.0381 31.6406V15.4688" stroke="black" stroke-width="1.17188" stroke-miterlimit="10" stroke-linecap="round" stroke-linejoin="round"/>
<path d="M22.1568 7.73438C22.2115 8.48516 22.3982 9.10156 22.6686 9.60938C23.5279 11.2242 25.2318 11.7266 26.2076 11.8828V35.1562H13.8701V11.8828C14.8459 11.7266 16.5498 11.2242 17.4092 9.60938C17.6795 9.10156 17.8662 8.48516 17.9209 7.73438" stroke="black" stroke-width="1.17188" stroke-miterlimit="10" stroke-linecap="round" stroke-linejoin="round"/>
</svg>
