<svg width="40" height="40" viewBox="0 0 40 40" fill="none" xmlns="http://www.w3.org/2000/svg">
<g clip-path="url(#clip0_89_680)">
<path d="M1.875 26.875H2.05143L2.00653 26.6954C1.91885 26.3458 1.89215 25.9837 1.9276 25.625H1.875C1.7093 25.6248 1.55044 25.5589 1.43327 25.4417C1.3161 25.3246 1.25019 25.1657 1.25 25V1.875C1.25019 1.7093 1.3161 1.55044 1.43327 1.43327C1.55044 1.3161 1.7093 1.25019 1.875 1.25H14.5582C14.9677 0.774611 15.4372 0.354428 15.9549 0L1.875 0C1.37789 0.000542622 0.901287 0.198261 0.549774 0.549774C0.198261 0.901287 0.000542622 1.37789 0 1.875L0 25C0.000542622 25.4971 0.198261 25.9737 0.549774 26.3252C0.901287 26.6767 1.37789 26.8745 1.875 26.875ZM38.125 0H24.0451C24.5628 0.354428 25.0323 0.774611 25.4418 1.25H38.125C38.2907 1.25019 38.4496 1.3161 38.5667 1.43327C38.6839 1.55044 38.7498 1.7093 38.75 1.875V25C38.7498 25.1657 38.6839 25.3246 38.5667 25.4417C38.4496 25.5589 38.2907 25.6248 38.125 25.625H38.0724C38.1079 25.9836 38.0812 26.3457 37.9935 26.6952L37.9485 26.875H38.125C38.6221 26.8745 39.0987 26.6767 39.4502 26.3252C39.8017 25.9737 39.9995 25.4971 40 25V1.875C39.9995 1.37789 39.8017 0.901287 39.4502 0.549774C39.0987 0.198261 38.6221 0.000542622 38.125 0V0ZM34.9616 24.0625H5.03844C4.75349 24.0625 4.47228 24.1274 4.21618 24.2523C3.96007 24.3773 3.73582 24.5589 3.56045 24.7835C3.38507 25.0081 3.2632 25.2697 3.20409 25.5485C3.14497 25.8272 3.15017 26.1158 3.21928 26.3922L3.84428 28.8924C3.94533 29.2982 4.17937 29.6586 4.50907 29.916C4.83878 30.1734 5.24516 30.313 5.66344 30.3125H7.23914L9.01122 39.4934C9.04298 39.6558 9.13786 39.799 9.27505 39.8916C9.41224 39.9841 9.58054 40.0185 9.74303 39.9872C9.90553 39.9558 10.049 39.8613 10.1419 39.7243C10.2348 39.5874 10.2696 39.4192 10.2386 39.2566L8.51223 30.3125H15.6749C15.6084 29.8985 15.6084 29.4765 15.6749 29.0625H5.66344C5.52401 29.0627 5.38854 29.0162 5.27863 28.9304C5.16872 28.8446 5.09071 28.7245 5.05705 28.5892L4.43205 26.0892C4.40903 25.997 4.40731 25.9008 4.42702 25.8079C4.44673 25.715 4.48735 25.6278 4.5458 25.5529C4.60426 25.4781 4.679 25.4175 4.76436 25.3758C4.84972 25.3342 4.94345 25.3125 5.03844 25.3125H34.9616C35.0565 25.3125 35.1503 25.3342 35.2356 25.3758C35.321 25.4175 35.3957 25.4781 35.4542 25.5529C35.5126 25.6278 35.5533 25.715 35.573 25.8079C35.5927 25.9008 35.591 25.997 35.5679 26.0892L34.9429 28.589C34.9093 28.7243 34.8313 28.8445 34.7214 28.9303C34.6115 29.0162 34.476 29.0627 34.3366 29.0625H24.3251C24.3916 29.4765 24.3916 29.8985 24.3251 30.3125H31.4878L29.7614 39.2566C29.73 39.4194 29.7645 39.5879 29.8574 39.7252C29.9503 39.8625 30.0939 39.9573 30.2567 39.9887C30.2959 39.9962 30.3357 40.0001 30.3757 40.0001C30.5208 39.9999 30.6613 39.9493 30.7732 39.8568C30.885 39.7644 30.9613 39.6359 30.9888 39.4934L32.7608 30.3125H34.3366C34.7549 30.313 35.1613 30.1734 35.491 29.9159C35.8207 29.6585 36.0547 29.2981 36.1557 28.8922L36.7807 26.3922C36.8498 26.1158 36.855 25.8272 36.7959 25.5485C36.7368 25.2697 36.6149 25.0081 36.4396 24.7835C36.2642 24.5589 36.0399 24.3773 35.7838 24.2523C35.5277 24.1274 35.2465 24.0625 34.9616 24.0625Z" fill="black"/>
<path d="M23.125 29.6874C23.125 29.0694 22.9417 28.4652 22.5983 27.9513C22.255 27.4374 21.7669 27.0368 21.1959 26.8003C20.6249 26.5638 19.9965 26.5019 19.3903 26.6225C18.7842 26.7431 18.2273 27.0407 17.7903 27.4777C17.3533 27.9148 17.0556 28.4716 16.935 29.0778C16.8145 29.684 16.8764 30.3123 17.1129 30.8833C17.3494 31.4543 17.7499 31.9424 18.2638 32.2858C18.7777 32.6292 19.3819 32.8124 20 32.8124C20.8285 32.8115 21.6228 32.482 22.2087 31.8961C22.7945 31.3103 23.1241 30.516 23.125 29.6874ZM18.125 29.6874C18.125 29.3166 18.235 28.9541 18.441 28.6458C18.647 28.3374 18.9399 28.0971 19.2825 27.9552C19.6251 27.8133 20.0021 27.7761 20.3658 27.8485C20.7295 27.9208 21.0636 28.0994 21.3258 28.3616C21.588 28.6238 21.7666 28.9579 21.839 29.3217C21.9113 29.6854 21.8742 30.0624 21.7323 30.405C21.5904 30.7476 21.35 31.0404 21.0417 31.2465C20.7334 31.4525 20.3708 31.5624 20 31.5624C19.5029 31.5619 19.0263 31.3642 18.6748 31.0127C18.3233 30.6612 18.1255 30.1846 18.125 29.6874ZM13.2544 15.1293C13.3711 15.012 13.4365 14.8532 13.4363 14.6878C13.436 14.5223 13.3702 14.3637 13.2532 14.2467C13.1362 14.1297 12.9776 14.0639 12.8122 14.0637C12.6467 14.0635 12.4879 14.1289 12.3706 14.2456L7.05811 19.5581C6.9409 19.6752 6.87503 19.8342 6.875 19.9999V22.8124H8.125V20.2589L13.2544 15.1293ZM27.6294 14.2456C27.5121 14.1287 27.3533 14.0632 27.1877 14.0634C27.0222 14.0635 26.8635 14.1293 26.7464 14.2464C26.6294 14.3634 26.5636 14.5222 26.5634 14.6877C26.5633 14.8532 26.6288 15.0121 26.7456 15.1293L31.875 20.2589V22.8124H33.125V19.9999C33.125 19.8342 33.0591 19.6752 32.9419 19.5581L27.6294 14.2456Z" fill="black"/>
<path d="M25.9021 10.0322C25.3188 10.8709 24.5645 11.5767 23.689 12.1032C23.298 13.1339 22.6313 14.0374 21.7618 14.7151L20.9335 13.0623C20.314 13.1458 19.6861 13.1458 19.0666 13.0623L18.2385 14.7149C17.3689 14.0374 16.7022 13.1339 16.3111 12.1032C15.4355 11.5768 14.6813 10.871 14.0979 10.0322C12.3845 10.1807 10.7889 10.9656 9.62546 12.2322C8.46205 13.4988 7.81524 15.1552 7.8125 16.875V17.0358L9.2038 15.6446C9.46006 14.5104 10.0609 13.4833 10.924 12.7042C11.787 11.925 12.87 11.432 14.0244 11.2926C13.967 11.7774 13.903 12.4044 13.8505 13.1254C14.0815 13.2794 14.2754 13.4826 14.4184 13.7205C14.5614 13.9585 14.6498 14.2251 14.6773 14.5013C14.7048 14.7775 14.6707 15.0564 14.5775 15.3178C14.4843 15.5793 14.3342 15.8168 14.1382 16.0133L13.7489 16.4026C13.7778 18.5252 14.0135 20.8552 14.7024 22.8125H16.0291C14.7802 19.7359 14.9248 15.2098 15.1564 12.5609C15.7282 14.0774 16.7996 15.3539 18.194 16.1799C18.2019 16.184 18.2105 16.186 18.2186 16.1897C18.261 16.2726 18.3123 16.3508 18.3714 16.4227L17.5064 22.4925C17.4917 22.6009 17.506 22.7113 17.5477 22.8125H19.0954L18.7811 22.4069L19.5697 16.875H20.4303L21.2189 22.4069L20.9046 22.8125H22.4523C22.494 22.7113 22.5083 22.6009 22.4936 22.4925L21.6286 16.4228C21.688 16.3506 21.7393 16.2722 21.7819 16.1889C21.7897 16.1853 21.7983 16.1839 21.806 16.1799C23.1998 15.359 24.272 14.0873 24.8455 12.5747C25.077 15.2253 25.2195 19.7406 23.9716 22.8125H25.2976C25.9865 20.8552 26.2222 18.5252 26.2511 16.4026L25.8618 16.0133C25.6658 15.8168 25.5159 15.5792 25.4227 15.3178C25.3295 15.0564 25.2955 14.7775 25.323 14.5014C25.3505 14.2252 25.4389 13.9585 25.5818 13.7206C25.7247 13.4827 25.9186 13.2794 26.1495 13.1254C26.097 12.4044 26.033 11.7774 25.9756 11.2926C27.13 11.432 28.213 11.925 29.076 12.7042C29.9391 13.4833 30.5399 14.5104 30.7962 15.6446L32.1875 17.0359V16.875C32.1848 15.1552 31.5379 13.4988 30.3745 12.2322C29.2111 10.9656 27.6155 10.1807 25.9021 10.0322ZM20.6757 15.625H19.3253L19.3046 15.3773L20 13.9897L20.6961 15.3788L20.6757 15.625Z" fill="black"/>
<path d="M20 0C18.8257 0 17.6777 0.348228 16.7013 1.00065C15.7249 1.65307 14.9639 2.58038 14.5145 3.66532C14.0651 4.75025 13.9475 5.94409 14.1766 7.09585C14.4057 8.24761 14.9712 9.30557 15.8016 10.1359C16.6319 10.9663 17.6899 11.5318 18.8417 11.7609C19.9934 11.99 21.1873 11.8724 22.2722 11.423C23.3571 10.9736 24.2844 10.2126 24.9369 9.2362C25.5893 8.25978 25.9375 7.11183 25.9375 5.9375C25.9357 4.36333 25.3096 2.85414 24.1965 1.74103C23.0834 0.627918 21.5742 0.00178737 20 0ZM20 10.625C19.0729 10.625 18.1666 10.3501 17.3958 9.83501C16.6249 9.31994 16.0241 8.58786 15.6693 7.73133C15.3145 6.8748 15.2217 5.9323 15.4026 5.02301C15.5834 4.11373 16.0299 3.2785 16.6854 2.62294C17.341 1.96738 18.1762 1.52094 19.0855 1.34007C19.9948 1.1592 20.9373 1.25203 21.7938 1.60681C22.6504 1.9616 23.3824 2.56241 23.8975 3.33326C24.4126 4.10412 24.6875 5.0104 24.6875 5.9375C24.6861 7.18028 24.1918 8.37176 23.313 9.25054C22.4343 10.1293 21.2428 10.6236 20 10.625Z" fill="black"/>
</g>
<defs>
<clipPath id="clip0_89_680">
<rect width="40" height="40" fill="white"/>
</clipPath>
</defs>
</svg>
