<svg width="40" height="40" viewBox="0 0 40 40" fill="none" xmlns="http://www.w3.org/2000/svg">
<g clip-path="url(#clip0_89_684)">
<path d="M37.2506 20.5651L38.0084 18.9068C38.0456 18.8252 38.0649 18.7367 38.0649 18.6471L38.0642 15.1836C37.8683 10.4606 35.9402 6.48565 32.488 3.68857C29.2354 1.11746 25.1615 -0.188227 21.0204 0.0131794C21.006 0.0125701 13.5777 -9.55542e-05 13.4376 -9.55542e-05C10.8406 0.0209561 8.30445 0.788019 6.13111 2.20973C3.95777 3.63145 2.23887 5.64789 1.17916 8.0189C0.119441 10.3899 -0.236438 13.0155 0.153908 15.5831C0.544254 18.1506 1.66437 20.5519 3.38086 22.5008C3.69475 22.8568 4.00851 23.1954 4.31193 23.5228C5.83559 25.167 7.04048 26.4672 7.15846 28.652V30.6249C7.15846 30.9564 7.29016 31.2744 7.52459 31.5088C7.75901 31.7432 8.07695 31.8749 8.40847 31.8749H18.456C18.5513 31.8741 18.6462 31.8624 18.7388 31.8399C20.5338 37.2793 29.9233 39.9999 32.3171 39.9999C32.8826 39.9994 33.4375 39.8466 33.9236 39.5576C34.4131 39.2641 34.8181 38.8487 35.099 38.3518C35.3798 37.855 35.527 37.2938 35.5261 36.7231V35.4188L36.56 34.6004C36.6859 34.5008 36.7686 34.3566 36.791 34.1977C36.8135 34.0387 36.7739 33.8773 36.6806 33.7467L35.8956 32.6491L37.1441 32.2153C37.2998 32.1613 37.4278 32.048 37.5003 31.9C37.5728 31.7521 37.584 31.5815 37.5314 31.4254L36.8692 29.4601H38.6834C38.8959 29.4595 39.105 29.4073 39.2929 29.3081C39.4807 29.2089 39.6417 29.0656 39.7619 28.8904C39.8856 28.711 39.9639 28.5042 39.9902 28.2879C40.0164 28.0715 39.9899 27.852 39.9127 27.6482L37.2506 20.5651ZM18.4667 28.6198H18.456V30.6249H8.40846V28.6198C8.25269 25.4638 6.2387 23.8518 4.3184 21.6741C2.76101 19.9056 1.74455 17.7268 1.38999 15.3971C1.03543 13.0675 1.35769 10.685 2.31844 8.53321C3.27918 6.38145 4.83793 4.55103 6.80919 3.25982C8.78045 1.9686 11.0812 1.27095 13.4376 1.2499C13.5649 1.2499 13.6933 1.25189 13.8215 1.25584C16.1438 1.34916 18.3922 2.09863 20.3061 3.41742C22.22 4.73621 23.721 6.57032 24.6352 8.70723C25.5494 10.8441 25.8394 13.1964 25.4716 15.4913C25.1037 17.7863 24.0931 19.93 22.5568 21.6741C20.6916 23.7893 18.617 25.5747 18.4667 28.6198ZM38.7329 28.1805C38.7281 28.1894 38.721 28.1969 38.7122 28.2021C38.7035 28.2073 38.6936 28.2101 38.6834 28.2101H35.9991C35.8999 28.2101 35.8021 28.2337 35.7139 28.279C35.6256 28.3243 35.5494 28.3899 35.4915 28.4705C35.4336 28.551 35.3958 28.6442 35.381 28.7423C35.3663 28.8404 35.3751 28.9406 35.4067 29.0346L36.1489 31.2377L34.696 31.7426C34.6042 31.7745 34.5211 31.8273 34.4533 31.8969C34.3854 31.9665 34.3348 32.051 34.3054 32.1436C34.2759 32.2362 34.2685 32.3344 34.2836 32.4304C34.2988 32.5264 34.3361 32.6175 34.3926 32.6966L35.3173 33.9896L34.5132 34.6262C34.4393 34.6847 34.3795 34.7592 34.3384 34.8441C34.2974 34.929 34.2761 35.022 34.2761 35.1163V36.7231C34.2774 37.0769 34.187 37.4249 34.0135 37.7333C33.84 38.0416 33.5895 38.2996 33.2864 38.4821C32.9932 38.6568 32.6584 38.7494 32.3171 38.7499C29.7548 38.7499 20.0909 35.5917 19.706 30.3228V28.783C19.7105 28.7496 19.7135 28.7157 19.7152 28.6814C19.8219 26.5205 21.1439 25.0778 22.6746 23.4072C22.9431 23.1142 23.2207 22.8112 23.4943 22.5009C24.8837 20.9224 25.887 19.0425 26.4249 17.0096C26.9629 14.9768 27.0208 12.8466 26.5942 10.7876C26.1675 8.72846 25.2678 6.79679 23.9663 5.14511C22.6648 3.49344 20.9971 2.16701 19.0949 1.2706C19.8528 1.27122 21.0313 1.2647 21.0594 1.26196C28.5875 0.980279 36.4187 5.68182 36.8148 15.2096V18.5111L36.0055 20.282C35.9713 20.357 35.9523 20.4379 35.9494 20.5202C35.9466 20.6025 35.9601 20.6845 35.989 20.7616L38.7433 28.0898C38.7494 28.1046 38.7516 28.1206 38.7498 28.1365C38.748 28.1523 38.7422 28.1675 38.7329 28.1804V28.1805Z" fill="black"/>
<path d="M18.4375 33.75C18.4375 33.5842 18.3716 33.4253 18.2544 33.3081C18.1372 33.1909 17.9782 33.125 17.8125 33.125H9.06241C8.89665 33.125 8.73768 33.1908 8.62047 33.3081C8.50326 33.4253 8.43741 33.5842 8.43741 33.75C8.43741 33.9158 8.50326 34.0747 8.62047 34.1919C8.73768 34.3092 8.89665 34.375 9.06241 34.375H17.8125C17.9782 34.375 18.1372 34.3091 18.2544 34.1919C18.3716 34.0747 18.4375 33.9158 18.4375 33.75ZM10.3124 35.625C10.1467 35.625 9.98769 35.6908 9.87048 35.8081C9.75327 35.9253 9.68743 36.0842 9.68743 36.25C9.68743 36.4158 9.75327 36.5747 9.87048 36.6919C9.98769 36.8092 10.1467 36.875 10.3124 36.875H16.5625C16.7282 36.875 16.8872 36.8092 17.0044 36.6919C17.1216 36.5747 17.1875 36.4158 17.1875 36.25C17.1875 36.0842 17.1216 35.9253 17.0044 35.8081C16.8872 35.6908 16.7282 35.625 16.5625 35.625H10.3124ZM13.4374 4.0625C11.5833 4.06251 9.7707 4.61235 8.22899 5.6425C6.68729 6.67264 5.48568 8.13682 4.77612 9.84988C4.06655 11.5629 3.88091 13.4479 4.24265 15.2665C4.60439 17.0851 5.49728 18.7555 6.8084 20.0666C8.11952 21.3778 9.78998 22.2706 11.6086 22.6324C13.4271 22.9941 15.3121 22.8084 17.0252 22.0989C18.7382 21.3893 20.2024 20.1877 21.2325 18.646C22.2627 17.1043 22.8125 15.2917 22.8125 13.4375C22.8097 10.952 21.821 8.56902 20.0635 6.81148C18.3059 5.05394 15.923 4.06531 13.4374 4.0625ZM13.4374 21.5625C11.8305 21.5625 10.2596 21.086 8.92345 20.1932C7.58731 19.3004 6.54591 18.0314 5.93095 16.5468C5.316 15.0621 5.1551 13.4285 5.46861 11.8524C5.78212 10.2763 6.55595 8.82854 7.69226 7.69224C8.82856 6.55595 10.2763 5.78212 11.8524 5.46862C13.4285 5.15512 15.0621 5.31602 16.5468 5.93098C18.0314 6.54595 19.3004 7.58735 20.1932 8.9235C21.086 10.2596 21.5625 11.8305 21.5625 13.4375C21.5601 15.5916 20.7033 17.6569 19.18 19.1801C17.6568 20.7033 15.5916 21.5601 13.4374 21.5625Z" fill="black"/>
<path d="M19.6875 12.8125C19.5217 12.8125 19.3628 12.8784 19.2456 12.9956C19.1284 13.1128 19.0625 13.2717 19.0625 13.4375C19.0625 14.55 18.7326 15.6376 18.1145 16.5626C17.4964 17.4876 16.6179 18.2086 15.5901 18.6344C14.5623 19.0601 13.4313 19.1715 12.3401 18.9545C11.2489 18.7375 10.2467 18.2017 9.45998 17.4151C8.6733 16.6284 8.13756 15.6261 7.92051 14.5349C7.70347 13.4438 7.81486 12.3128 8.2406 11.2849C8.66635 10.2571 9.38732 9.37858 10.3124 8.76049C11.2374 8.1424 12.3249 7.8125 13.4375 7.8125C13.6032 7.8125 13.7622 7.74665 13.8794 7.62944C13.9966 7.51223 14.0625 7.35326 14.0625 7.1875C14.0625 7.02174 13.9966 6.86277 13.8794 6.74556C13.7622 6.62835 13.6032 6.5625 13.4375 6.5625C12.0777 6.56251 10.7485 6.96573 9.61793 7.72116C8.48735 8.4766 7.60617 9.55033 7.08582 10.8066C6.56547 12.0628 6.42933 13.4452 6.69461 14.7788C6.95989 16.1124 7.61467 17.3374 8.57616 18.2989C9.53764 19.2604 10.7627 19.9151 12.0963 20.1804C13.4299 20.4457 14.8122 20.3095 16.0685 19.7892C17.3247 19.2688 18.3984 18.3876 19.1539 17.257C19.9093 16.1265 20.3125 14.7972 20.3125 13.4375C20.3125 13.2717 20.2466 13.1128 20.1294 12.9956C20.0122 12.8784 19.8533 12.8125 19.6875 12.8125Z" fill="black"/>
<path d="M9.0625 13.4375C9.06249 14.3028 9.31908 15.1487 9.79981 15.8681C10.2805 16.5876 10.9638 17.1484 11.7633 17.4795C12.5627 17.8107 13.4424 17.8973 14.291 17.7285C15.1397 17.5597 15.9193 17.143 16.5311 16.5312C17.143 15.9193 17.5597 15.1397 17.7285 14.2911C17.8973 13.4424 17.8107 12.5627 17.4795 11.7633C17.1484 10.9639 16.5876 10.2806 15.8682 9.79983C15.1487 9.3191 14.3028 9.0625 13.4375 9.0625C12.2776 9.0638 11.1656 9.52515 10.3454 10.3453C9.52517 11.1655 9.06381 12.2776 9.0625 13.4375ZM16.5626 13.4375C16.5626 14.0556 16.3793 14.6598 16.0359 15.1737C15.6925 15.6876 15.2045 16.0881 14.6334 16.3247C14.0624 16.5612 13.4341 16.6231 12.8279 16.5025C12.2217 16.3819 11.6649 16.0843 11.2278 15.6472C10.7908 15.2102 10.4931 14.6534 10.3726 14.0472C10.252 13.441 10.3139 12.8127 10.5504 12.2416C10.7869 11.6706 11.1875 11.1825 11.7014 10.8392C12.2153 10.4958 12.8195 10.3125 13.4375 10.3125C14.2661 10.3134 15.0604 10.643 15.6462 11.2288C16.2321 11.8147 16.5616 12.609 16.5626 13.4375H16.5626Z" fill="black"/>
<path d="M11.5625 13.4375C11.5625 13.6033 11.6283 13.7622 11.7456 13.8794C11.8628 13.9967 12.0217 14.0625 12.1875 14.0625C12.3533 14.0625 12.5122 13.9967 12.6294 13.8794C12.7467 13.7622 12.8125 13.6033 12.8125 13.4375C12.8125 13.3139 12.8492 13.1931 12.9178 13.0903C12.9865 12.9875 13.0841 12.9074 13.1983 12.8601C13.3125 12.8128 13.4382 12.8004 13.5594 12.8245C13.6807 12.8486 13.792 12.9081 13.8794 12.9956C13.9668 13.083 14.0264 13.1943 14.0505 13.3156C14.0746 13.4368 14.0622 13.5625 14.0149 13.6767C13.9676 13.7909 13.8875 13.8885 13.7847 13.9572C13.682 14.0258 13.5611 14.0625 13.4375 14.0625C13.2718 14.0625 13.1128 14.1283 12.9956 14.2456C12.8784 14.3628 12.8125 14.5217 12.8125 14.6875C12.8125 14.8533 12.8784 15.0122 12.9956 15.1294C13.1128 15.2467 13.2718 15.3125 13.4375 15.3125C13.8084 15.3125 14.1709 15.2025 14.4792 14.9965C14.7875 14.7905 15.0279 14.4976 15.1698 14.155C15.3117 13.8124 15.3488 13.4354 15.2765 13.0717C15.2041 12.708 15.0255 12.3739 14.7633 12.1117C14.5011 11.8494 14.167 11.6709 13.8033 11.5985C13.4396 11.5262 13.0626 11.5633 12.72 11.7052C12.3774 11.8471 12.0845 12.0875 11.8785 12.3958C11.6725 12.7041 11.5625 13.0667 11.5625 13.4375Z" fill="black"/>
</g>
<defs>
<clipPath id="clip0_89_684">
<rect width="40" height="40" fill="white"/>
</clipPath>
</defs>
</svg>
