<svg width="40" height="40" viewBox="0 0 40 40" fill="none" xmlns="http://www.w3.org/2000/svg">
<path fill-rule="evenodd" clip-rule="evenodd" d="M6.25879 22.491V23.7409H35.009V22.491H6.25879Z" fill="black"/>
<path fill-rule="evenodd" clip-rule="evenodd" d="M5.63379 11.8665V36.8654H6.8838V11.8665H5.63379ZM34.384 11.8665V36.8654H35.634V11.8665H34.384Z" fill="black"/>
<path fill-rule="evenodd" clip-rule="evenodd" d="M3.12402 11.8762V36.8752C3.12404 37.0409 3.1899 37.1999 3.30711 37.3171C3.42432 37.4343 3.58328 37.5002 3.74904 37.5002L17.4991 37.486C17.6649 37.486 17.8239 37.4201 17.9411 37.3029C18.0583 37.1857 18.1241 37.0268 18.1241 36.8611V32.7475C18.1242 32.0393 18.5143 31.3647 19.213 30.9458L20.6242 30.0985L22.0353 30.9458C22.734 31.3649 23.1242 32.0393 23.1242 32.7475V36.8611C23.1242 37.0268 23.1901 37.1857 23.3073 37.3029C23.4245 37.4201 23.5834 37.486 23.7492 37.486L37.4993 37.5002C37.6651 37.5002 37.824 37.4343 37.9412 37.3171C38.0584 37.1999 38.1243 37.0409 38.1243 36.8752V11.8762H36.8743V36.2502L24.3742 36.2361V32.7474C24.3742 31.5762 23.7199 30.4976 22.6799 29.8741L20.9464 28.834C20.8491 28.7755 20.7377 28.7445 20.6242 28.7445C20.5106 28.7445 20.3992 28.7755 20.3019 28.834L18.5685 29.8741C17.5285 30.4976 16.8742 31.5762 16.8741 32.7474V36.2361L4.37404 36.2502V11.8762H3.12402Z" fill="black"/>
<path fill-rule="evenodd" clip-rule="evenodd" d="M30.6486 16.8754C30.5268 16.8709 30.4063 16.9022 30.302 16.9652L27.88 18.4202C26.507 19.2455 25.5102 20.6757 25.6339 22.28L25.7023 23.1638C25.7081 23.246 25.7301 23.3262 25.7671 23.3999C25.804 23.4736 25.8551 23.5394 25.9175 23.5933C25.9799 23.6471 26.0524 23.6881 26.1307 23.7139C26.209 23.7397 26.2916 23.7497 26.3738 23.7435C26.456 23.7372 26.5362 23.7148 26.6097 23.6775C26.6832 23.6401 26.7486 23.5886 26.8021 23.5259C26.8557 23.4632 26.8963 23.3906 26.9216 23.3121C26.947 23.2337 26.9566 23.1509 26.9499 23.0688L26.8815 22.1827C26.8028 21.1606 27.4681 20.1273 28.5246 19.4923L30.6242 18.2302L32.7238 19.4923C33.7804 20.1273 34.4457 21.1606 34.3669 22.1827L34.2985 23.0688C34.2917 23.151 34.3012 23.2339 34.3265 23.3124C34.3518 23.391 34.3923 23.4637 34.4459 23.5265C34.4994 23.5893 34.5648 23.6409 34.6384 23.6783C34.712 23.7157 34.7922 23.7382 34.8745 23.7445C34.9568 23.7508 35.0395 23.7406 35.1179 23.7148C35.1963 23.689 35.2687 23.6478 35.3312 23.5938C35.3936 23.5399 35.4447 23.474 35.4816 23.4002C35.5185 23.3264 35.5404 23.2461 35.5461 23.1638L35.6145 22.28C35.7382 20.6757 34.7414 19.2455 33.3683 18.4202L30.9464 16.9652C30.8563 16.9107 30.7539 16.8798 30.6486 16.8754H30.6486ZM10.6167 30C10.4958 30.0014 10.378 30.0377 10.2774 30.1048L9.26418 30.7811C8.55267 31.2555 8.12406 32.0547 8.12402 32.9098V36.8747H9.37404V32.9098C9.37406 32.4714 9.59252 32.0644 9.95754 31.821L10.624 31.3765L11.2906 31.821C11.6556 32.0643 11.8741 32.4712 11.8741 32.9098V36.8747H13.1241V32.9098C13.124 32.0547 12.6954 31.2555 11.9839 30.7811L10.9707 30.1048C10.866 30.035 10.7426 29.9985 10.6167 30H10.6167Z" fill="black"/>
<path fill-rule="evenodd" clip-rule="evenodd" d="M20.5948 11.5633C20.4893 11.5685 20.3868 11.6003 20.297 11.6558L16.4908 14.0019C14.444 15.2639 12.9386 17.3143 13.1192 19.7171L14.3643 19.6245C14.2267 17.7935 15.3739 16.1585 17.1451 15.0665L20.6241 12.9231L24.1032 15.0665C25.8704 16.1561 27.0071 17.8105 26.8693 19.644L28.1169 19.739C28.2973 17.3385 26.8082 15.2662 24.7574 14.0018L20.9513 11.6558C20.8445 11.5899 20.7203 11.5575 20.5948 11.5631V11.5633Z" fill="black"/>
<path fill-rule="evenodd" clip-rule="evenodd" d="M10.6486 16.8759C10.5268 16.8714 10.4063 16.9026 10.3019 16.9657L7.88002 18.4207C6.50695 19.2459 5.51021 20.6762 5.63391 22.2805L5.70228 23.1643C5.70808 23.2465 5.73009 23.3267 5.76703 23.4004C5.80396 23.4741 5.8551 23.5399 5.91751 23.5937C5.97991 23.6476 6.05235 23.6886 6.13066 23.7144C6.20897 23.7402 6.2916 23.7502 6.37381 23.744C6.45602 23.7377 6.53618 23.7153 6.60968 23.6779C6.68318 23.6406 6.74858 23.5891 6.80211 23.5264C6.85564 23.4637 6.89625 23.3911 6.92161 23.3126C6.94696 23.2342 6.95656 23.1514 6.94986 23.0692L6.88148 22.1832C6.80273 21.1611 7.46805 20.1278 8.52455 19.4928L10.6242 18.2307L12.7238 19.4928C13.7803 20.1278 14.4457 21.1611 14.3669 22.1832L14.2985 23.0692C14.2917 23.1515 14.3012 23.2343 14.3264 23.3129C14.3517 23.3915 14.3923 23.4642 14.4459 23.527C14.4994 23.5898 14.5648 23.6414 14.6384 23.6788C14.7119 23.7162 14.7922 23.7387 14.8745 23.745C14.9568 23.7512 15.0395 23.7411 15.1179 23.7153C15.1962 23.6894 15.2687 23.6483 15.3311 23.5943C15.3936 23.5403 15.4447 23.4745 15.4816 23.4007C15.5185 23.3269 15.5404 23.2466 15.5461 23.1643L15.6144 22.2805C15.7382 20.6762 14.7414 19.2459 13.3683 18.4207L10.9464 16.9657C10.8563 16.9112 10.7538 16.8803 10.6486 16.8759H10.6486ZM14.9992 26.2505C14.8335 26.2506 14.6745 26.3164 14.5573 26.4336C14.4401 26.5508 14.3742 26.7098 14.3742 26.8755V36.8653C14.3731 36.9481 14.3884 37.0304 14.4193 37.1073C14.4501 37.1841 14.496 37.254 14.5542 37.313C14.6123 37.372 14.6816 37.4187 14.758 37.4507C14.8344 37.4826 14.9164 37.4991 14.9992 37.4991C15.082 37.4991 15.164 37.4826 15.2404 37.4507C15.3168 37.4187 15.3861 37.372 15.4443 37.313C15.5024 37.254 15.5483 37.1841 15.5792 37.1073C15.6101 37.0304 15.6254 36.9481 15.6242 36.8653V27.5005H25.6243V36.8653C25.6231 36.9481 25.6385 37.0304 25.6693 37.1073C25.7002 37.1841 25.7461 37.254 25.8042 37.313C25.8624 37.372 25.9317 37.4189 26.0081 37.4508C26.0845 37.4828 26.1665 37.4991 26.2493 37.4991C26.3321 37.4991 26.4141 37.4828 26.4905 37.4508C26.5669 37.4189 26.6362 37.372 26.6944 37.313C26.7525 37.254 26.7984 37.1841 26.8293 37.1073C26.8602 37.0304 26.8755 36.9481 26.8743 36.8653V26.8755C26.8743 26.7098 26.8084 26.5508 26.6912 26.4336C26.574 26.3164 26.4151 26.2506 26.2493 26.2505H14.9992ZM14.384 17.4912V18.7411H26.8841V17.4912H14.384ZM19.9993 10.0012V11.8762H21.2493V10.0012H19.9993Z" fill="black"/>
<path d="M19.3789 5.62619C19.2164 5.63134 19.0622 5.6997 18.9492 5.81664C18.44 6.32586 18.124 7.03422 18.124 7.8088C18.124 9.35764 19.3925 10.6261 20.9414 10.6261C21.7159 10.6261 22.4244 10.31 22.9336 9.80083C22.9937 9.74326 23.0417 9.67433 23.0748 9.59798C23.1078 9.52163 23.1253 9.4394 23.1262 9.3562C23.1271 9.273 23.1113 9.19045 23.0799 9.11341C23.0485 9.03638 23.002 8.96637 22.9431 8.90754C22.8843 8.84871 22.8143 8.80229 22.7373 8.77086C22.6602 8.73943 22.5777 8.7237 22.4945 8.72458C22.4113 8.72547 22.3291 8.74299 22.2527 8.77605C22.1764 8.80912 22.1074 8.85713 22.0498 8.9172C21.7654 9.2016 21.3782 9.37581 20.9414 9.37581C20.068 9.37581 19.374 8.68174 19.374 7.80852C19.374 7.37152 19.5485 6.98476 19.833 6.70012C19.9238 6.61241 19.9858 6.49924 20.011 6.37559C20.0363 6.25194 20.0234 6.12361 19.9743 6.00738C19.9252 5.89114 19.842 5.79243 19.7357 5.72437C19.6294 5.6563 19.5051 5.62208 19.3789 5.62604L19.3789 5.62619Z" fill="black"/>
<path d="M18.124 20.6257C18.124 20.7915 18.0582 20.9504 17.941 21.0676C17.8238 21.1848 17.6648 21.2507 17.499 21.2507C17.3333 21.2507 17.1743 21.1848 17.0571 21.0676C16.9399 20.9504 16.874 20.7915 16.874 20.6257C16.874 20.46 16.9399 20.301 17.0571 20.1838C17.1743 20.0666 17.3333 20.0007 17.499 20.0007C17.6648 20.0007 17.8238 20.0666 17.941 20.1838C18.0582 20.301 18.124 20.46 18.124 20.6257ZM21.258 20.6259C21.2579 20.7916 21.1921 20.9505 21.0749 21.0677C20.9577 21.185 20.7987 21.2508 20.633 21.2508C20.4672 21.2508 20.3082 21.185 20.191 21.0677C20.0738 20.9505 20.0079 20.7916 20.0079 20.6259C20.0079 20.5438 20.0241 20.4625 20.0555 20.3867C20.0869 20.3108 20.1329 20.2419 20.191 20.1838C20.249 20.1258 20.3179 20.0799 20.3938 20.0485C20.4696 20.017 20.5509 20.0009 20.633 20.0009C20.715 20.0009 20.7963 20.017 20.8721 20.0485C20.948 20.0799 21.0169 20.1258 21.0749 20.1838C21.1329 20.2419 21.179 20.3109 21.2104 20.3867C21.2418 20.4625 21.258 20.5438 21.258 20.6259ZM24.3741 20.6257C24.3741 20.7915 24.3082 20.9504 24.191 21.0676C24.0738 21.1848 23.9148 21.2507 23.7491 21.2507C23.5833 21.2507 23.4243 21.1848 23.3071 21.0676C23.1899 20.9504 23.1241 20.7915 23.1241 20.6257C23.1241 20.46 23.1899 20.301 23.3071 20.1838C23.4243 20.0666 23.5833 20.0007 23.7491 20.0007C23.9148 20.0007 24.0738 20.0666 24.191 20.1838C24.3082 20.301 24.3741 20.46 24.3741 20.6257Z" fill="black"/>
<path fill-rule="evenodd" clip-rule="evenodd" d="M3.13396 11.2513C3.05109 11.25 2.96881 11.2653 2.89189 11.2961C2.81497 11.327 2.74496 11.3728 2.68592 11.4309C2.62688 11.4891 2.57999 11.5585 2.54799 11.6349C2.51599 11.7114 2.49951 11.7934 2.49951 11.8763C2.49951 11.9591 2.51599 12.0412 2.54799 12.1176C2.57999 12.1941 2.62688 12.2633 2.68592 12.3215C2.74496 12.3796 2.81497 12.4256 2.89189 12.4564C2.96881 12.4873 3.05109 12.5025 3.13396 12.5013H6.86446C6.94732 12.5025 7.02961 12.4873 7.10653 12.4564C7.18344 12.4256 7.25346 12.3796 7.3125 12.3215C7.37154 12.2633 7.41842 12.1941 7.45042 12.1176C7.48242 12.0412 7.4989 11.9591 7.4989 11.8763C7.4989 11.7934 7.48242 11.7114 7.45042 11.6349C7.41842 11.5585 7.37154 11.4891 7.3125 11.4309C7.25346 11.3728 7.18344 11.327 7.10653 11.2961C7.02961 11.2653 6.94732 11.25 6.86446 11.2513H3.13396Z" fill="black"/>
<path fill-rule="evenodd" clip-rule="evenodd" d="M4.98684 5.00134C4.88602 5.00332 4.78719 5.02958 4.69876 5.07804C4.61034 5.12649 4.53494 5.19569 4.47902 5.27959L3.85889 6.20979C3.37981 6.92839 3.12402 7.77266 3.12402 8.63634V11.876H4.37404V8.63634C4.37404 8.01936 4.55669 7.41644 4.89894 6.90297L4.99906 6.75173L5.09918 6.90297C5.44144 7.41644 5.62409 8.01936 5.62409 8.63634V11.876H6.8741V8.63634C6.8741 7.77266 6.61832 6.92839 6.13923 6.20979L5.5191 5.27959C5.46089 5.19225 5.38162 5.1209 5.2886 5.07227C5.19558 5.02364 5.09182 4.9993 4.98687 5.00134H4.98684Z" fill="black"/>
<path fill-rule="evenodd" clip-rule="evenodd" d="M4.98934 2.5013C4.90726 2.50258 4.82624 2.52003 4.7509 2.55262C4.67556 2.58522 4.60738 2.63223 4.55025 2.69117C4.49312 2.75011 4.44816 2.81972 4.41793 2.89604C4.38771 2.97236 4.37281 3.05387 4.3741 3.13594V5.61642C4.37294 5.69923 4.38826 5.78136 4.41915 5.8582C4.45004 5.93503 4.49589 6.00511 4.55404 6.06407C4.61219 6.12304 4.68148 6.1698 4.75789 6.20176C4.83429 6.23372 4.91629 6.2502 4.99911 6.2502C5.08193 6.2502 5.16392 6.23372 5.24032 6.20176C5.31673 6.1698 5.38602 6.12304 5.44417 6.06407C5.50232 6.00511 5.54818 5.93503 5.57907 5.8582C5.60996 5.78136 5.62527 5.69923 5.62411 5.61642V3.13594C5.62542 3.05222 5.6099 2.96917 5.57846 2.89157C5.54703 2.81397 5.50032 2.74346 5.44111 2.68425C5.38191 2.62505 5.31141 2.57829 5.2338 2.54686C5.15619 2.51542 5.07306 2.49999 4.98934 2.5013ZM10.0089 15.616V17.491H11.2589V15.616H10.0089ZM30.0091 15.616V17.491H31.2591V15.616H30.0091ZM30.617 30.0002C30.4961 30.0016 30.3782 30.038 30.2776 30.105L29.2644 30.7813C28.5529 31.2557 28.1243 32.0549 28.1243 32.91V36.8749H29.3743V32.91C29.3743 32.4716 29.5928 32.0646 29.9578 31.8212L30.6243 31.3768L31.2908 31.8212C31.6558 32.0645 31.8743 32.4714 31.8743 32.91V36.8749H33.1243V32.91C33.1243 32.0549 32.6957 31.2557 31.9842 30.7813L30.971 30.105C30.8663 30.0352 30.7429 29.9987 30.617 30.0002H30.617ZM34.3841 11.2509C34.3012 11.2497 34.219 11.2649 34.142 11.2958C34.0651 11.3266 33.9951 11.3724 33.9361 11.4306C33.877 11.4887 33.8301 11.5581 33.7981 11.6346C33.7661 11.711 33.7497 11.7931 33.7497 11.8759C33.7497 11.9588 33.7661 12.0408 33.7981 12.1173C33.8301 12.1937 33.877 12.263 33.9361 12.3211C33.9951 12.3793 34.0651 12.4252 34.142 12.4561C34.219 12.4869 34.3012 12.5022 34.3841 12.5009H38.1146C38.1975 12.5022 38.2798 12.4869 38.3567 12.4561C38.4336 12.4252 38.5036 12.3793 38.5626 12.3211C38.6217 12.263 38.6686 12.1937 38.7006 12.1173C38.7326 12.0408 38.7491 11.9588 38.7491 11.8759C38.7491 11.7931 38.7326 11.711 38.7006 11.6346C38.6686 11.5581 38.6217 11.4887 38.5626 11.4306C38.5036 11.3724 38.4336 11.3266 38.3567 11.2958C38.2798 11.2649 38.1975 11.2497 38.1146 11.2509H34.3841Z" fill="black"/>
<path fill-rule="evenodd" clip-rule="evenodd" d="M36.2373 5.00134C36.1365 5.00332 36.0377 5.02958 35.9492 5.07804C35.8608 5.12649 35.7854 5.19569 35.7295 5.27959L35.1094 6.20979C34.6303 6.92839 34.3745 7.77266 34.3745 8.63634V11.876H35.6245V8.63634C35.6245 8.01936 35.8072 7.41644 36.1494 6.90297L36.2496 6.75173L36.3497 6.90297C36.6919 7.41644 36.8746 8.01936 36.8746 8.63634V11.876H38.1246V8.63634C38.1246 7.77266 37.8688 6.92839 37.3897 6.20979L36.7696 5.27959C36.7114 5.19225 36.6321 5.1209 36.5391 5.07227C36.4461 5.02364 36.3423 4.9993 36.2374 5.00134H36.2373Z" fill="black"/>
<path fill-rule="evenodd" clip-rule="evenodd" d="M36.2398 2.5013C36.1577 2.50258 36.0767 2.52003 36.0014 2.55262C35.926 2.58522 35.8579 2.63223 35.8007 2.69117C35.7436 2.75011 35.6986 2.81972 35.6684 2.89604C35.6382 2.97236 35.6233 3.05387 35.6246 3.13594V5.61642C35.6234 5.69923 35.6387 5.78136 35.6696 5.8582C35.7005 5.93503 35.7464 6.00496 35.8045 6.06393C35.8627 6.12289 35.932 6.1698 36.0084 6.20176C36.0848 6.23372 36.1668 6.2502 36.2496 6.2502C36.3324 6.2502 36.4144 6.23372 36.4908 6.20176C36.5672 6.1698 36.6365 6.12289 36.6947 6.06393C36.7528 6.00496 36.7987 5.93503 36.8296 5.8582C36.8604 5.78136 36.8758 5.69923 36.8746 5.61642V3.13594C36.8759 3.05222 36.8604 2.96917 36.829 2.89157C36.7975 2.81397 36.7508 2.74346 36.6916 2.68425C36.6324 2.62505 36.5619 2.57829 36.4843 2.54686C36.4067 2.51542 36.3235 2.49999 36.2398 2.5013Z" fill="black"/>
</svg>
