<svg width="40" height="40" viewBox="0 0 40 40" fill="none" xmlns="http://www.w3.org/2000/svg">
<path d="M20.0002 2C18.726 2 17.5477 2.6143 16.5613 3.58842C15.5748 4.56271 14.7415 5.90536 14.046 7.52912C13.8348 8.02224 13.6425 8.54886 13.4579 9.09197C12.8921 8.99941 12.3335 8.92319 11.7992 8.87784C10.0398 8.72844 8.46245 8.8322 7.1394 9.24538C5.81637 9.65857 4.72448 10.4119 4.12555 11.5369C3.52662 12.6618 3.50965 13.9918 3.90502 15.321C4.30042 16.6501 5.09447 18.0181 6.19977 19.396C6.36131 19.5973 6.54585 19.7984 6.72072 20C6.54526 20.2022 6.3618 20.4053 6.19977 20.6072C5.09447 21.9851 4.3004 23.3499 3.90502 24.679C3.50963 26.0082 3.52341 27.3382 4.12235 28.4631C4.72127 29.5881 5.81635 30.3414 7.1394 30.7546C8.46243 31.1678 10.0398 31.2716 11.7992 31.1222C12.3333 31.0768 12.8891 31.0006 13.4547 30.908C13.6394 31.4516 13.8347 31.9807 14.046 32.4741C14.7415 34.0978 15.5748 35.4406 16.5613 36.4148C17.5477 37.3889 18.726 38 20.0002 38C21.2744 38 22.4527 37.3889 23.4391 36.4148C24.4256 35.4406 25.2589 34.0978 25.9544 32.4741C26.1652 31.9818 26.3582 31.4534 26.5425 30.9112C27.1092 31.004 27.6661 31.0799 28.2012 31.1254C29.9606 31.2746 31.538 31.1676 32.861 30.7546C34.184 30.3414 35.2791 29.5881 35.878 28.4631C36.477 27.3382 36.4908 26.0114 36.0954 24.6822C35.7 23.353 34.9059 21.9819 33.8006 20.604C33.639 20.4025 33.4579 20.2017 33.2829 20C33.4576 19.7986 33.6392 19.5972 33.8006 19.396C34.9059 18.0181 35.7 16.647 36.0954 15.3178C36.4908 13.9886 36.477 12.6618 35.878 11.5369C35.2791 10.4119 34.184 9.65857 32.861 9.24538C31.5379 8.83237 29.9606 8.7286 28.2012 8.87784C27.667 8.92317 27.1113 8.99956 26.5457 9.09197C26.361 8.54853 26.1657 8.02252 25.9544 7.52912C25.2589 5.90536 24.4256 4.56271 23.4391 3.58842C22.4527 2.6143 21.2744 2 20.0002 2ZM20.0002 3.63636C20.7582 3.63636 21.5142 3.98694 22.2885 4.75178C23.0629 5.51645 23.816 6.68922 24.4523 8.17472C24.6165 8.55808 24.7482 9.01439 24.8965 9.43714C23.3301 9.79878 21.6857 10.3243 19.997 11.0064C18.3108 10.3252 16.668 9.79872 15.1039 9.43714C15.2522 9.01439 15.3839 8.55808 15.5481 8.17472C16.1843 6.68922 16.9375 5.51645 17.7118 4.75178C18.4862 3.98694 19.2422 3.63636 20.0002 3.63636ZM10.4984 10.4503C10.8711 10.4543 11.2595 10.4734 11.6618 10.5078C12.0766 10.543 12.5429 10.6414 12.9849 10.7092C12.6068 12.1154 12.3267 13.6515 12.1316 15.2731C10.5185 16.3992 9.06092 17.5767 7.85531 18.7823C7.73899 18.6457 7.58703 18.5057 7.47818 18.37C6.4672 17.1099 5.78466 15.8946 5.47427 14.8512C5.16388 13.8077 5.21039 12.9737 5.56696 12.304C5.92353 11.6342 6.58977 11.1292 7.62839 10.805C8.40736 10.5616 9.38045 10.4383 10.4984 10.4503ZM29.502 10.4503C30.6204 10.4392 31.5962 10.5651 32.3752 10.8082C33.4138 11.1326 34.0769 11.6374 34.4334 12.3072C34.79 12.9768 34.8397 13.8079 34.5293 14.8512C34.2189 15.8947 33.5332 17.1097 32.5222 18.37C32.4141 18.5047 32.2637 18.6435 32.1483 18.7791C30.9428 17.5745 29.4814 16.3981 27.8688 15.2731C27.6736 13.6503 27.3939 12.113 27.0155 10.706C27.4574 10.6382 27.9238 10.543 28.3386 10.5078C28.7409 10.4734 29.1292 10.454 29.502 10.4503ZM25.4015 10.9936C25.6643 11.9548 25.8799 12.9911 26.0567 14.081C25.3368 13.6371 24.6197 13.1932 23.845 12.7802C23.2718 12.4746 22.703 12.23 22.1319 11.9588C23.2602 11.5641 24.3563 11.2303 25.4015 10.9936ZM14.5989 10.9968C15.6432 11.2332 16.738 11.5646 17.8653 11.9588C17.2955 12.2294 16.7273 12.4721 16.1554 12.777C15.3806 13.19 14.6636 13.6369 13.9437 14.081C14.1203 12.9922 14.3364 11.9571 14.5989 10.9968ZM20.0002 12.7546C21.0149 13.1853 22.0453 13.6759 23.0748 14.2248C24.2368 14.8443 25.3155 15.5074 26.3411 16.1935C26.4636 17.4192 26.5425 18.6853 26.5425 20C26.5425 21.3146 26.4636 22.5774 26.3411 23.8033C25.3163 24.4888 24.2361 25.1561 23.0748 25.7752C22.043 26.3253 21.0142 26.8139 19.997 27.2454C18.982 26.8145 17.9519 26.3241 16.9224 25.7752C15.7611 25.1562 14.684 24.492 13.6593 23.8065C13.5366 22.5796 13.4579 21.3157 13.4579 20C13.4579 18.6853 13.5368 17.4192 13.6593 16.1935C14.6849 15.5074 15.7636 14.8411 16.9256 14.2216C17.9551 13.6728 18.9855 13.1853 20.0002 12.7546ZM11.9334 17.4336C11.8802 18.2779 11.8216 19.1216 11.8216 20C11.8216 20.8792 11.8801 21.7212 11.9334 22.5664C10.8244 21.7223 9.83001 20.8634 8.97072 20C9.83018 19.1366 10.8242 18.2778 11.9334 17.4336ZM28.067 17.4336C29.1754 18.2772 30.1706 19.134 31.0297 19.9968C30.1702 20.8604 29.1762 21.7222 28.067 22.5664C28.1203 21.7212 28.1788 20.8792 28.1788 20C28.1788 19.1216 28.1202 18.2779 28.067 17.4336ZM20.0002 17.5455C18.6546 17.5455 17.5457 18.6544 17.5457 20C17.5457 21.3457 18.6546 22.4545 20.0002 22.4545C21.3458 22.4545 22.4547 21.3457 22.4547 20C22.4547 18.6544 21.3458 17.5455 20.0002 17.5455ZM20.0002 19.1818C20.4609 19.1818 20.8184 19.5382 20.8184 20C20.8184 20.4619 20.4609 20.8182 20.0002 20.8182C19.5395 20.8182 19.182 20.4619 19.182 20C19.182 19.5382 19.5395 19.1818 20.0002 19.1818ZM7.85211 21.2177C9.05848 22.4239 10.5202 23.6006 12.1348 24.7269C12.3299 26.3482 12.607 27.8848 12.9849 29.2908C12.5422 29.3587 12.0771 29.4569 11.6618 29.4922C10.0525 29.628 8.66701 29.5163 7.62839 29.1918C6.58977 28.8674 5.92351 28.3658 5.56696 27.696C5.21037 27.0263 5.16388 26.1923 5.47427 25.1488C5.78466 24.1054 6.46402 22.8901 7.47498 21.63C7.58375 21.4944 7.73588 21.3542 7.85211 21.2177ZM32.1483 21.2177C32.2645 21.3542 32.4166 21.4944 32.5254 21.63C33.5364 22.8903 34.2157 24.1021 34.5261 25.1456C34.8365 26.1889 34.79 27.0232 34.4334 27.6928C34.0769 28.3626 33.4106 28.8674 32.372 29.1918C31.3334 29.5158 29.9479 29.628 28.3386 29.4922C27.9238 29.457 27.4575 29.3618 27.0155 29.294C27.394 27.8862 27.6736 26.3474 27.8688 24.7237C29.4821 23.5981 30.9427 22.423 32.1483 21.2177ZM26.0567 25.9158C25.8798 27.007 25.6645 28.0442 25.4015 29.0064C24.3562 28.7696 23.2603 28.436 22.1319 28.0412C22.7035 27.7697 23.2713 27.5257 23.845 27.2198C24.6198 26.8068 25.3369 26.3597 26.0567 25.9158ZM13.9437 25.919C14.6634 26.3628 15.3807 26.8069 16.1554 27.2198C16.7291 27.5257 17.2969 27.7697 17.8684 28.0412C16.7411 28.4356 15.6433 28.7665 14.5989 29.0032C14.3365 28.0427 14.1203 27.008 13.9437 25.919ZM20.0002 28.9936C21.6871 29.6752 23.3317 30.2042 24.8965 30.5661C24.7484 30.9884 24.6163 31.4456 24.4523 31.8285C23.816 33.314 23.0629 34.4867 22.2885 35.2514C21.5142 36.0163 20.7582 36.3636 20.0002 36.3636C19.2422 36.3636 18.4862 36.0163 17.7118 35.2514C16.9375 34.4867 16.1843 33.314 15.5481 31.8285C15.3838 31.4447 15.2523 30.9862 15.1039 30.5629C16.6687 30.201 18.3133 29.6751 20.0002 28.9936Z" fill="black"/>
</svg>
