<svg width="40" height="40" viewBox="0 0 40 40" fill="none" xmlns="http://www.w3.org/2000/svg">
<path d="M14.5997 19.375H25.3997C25.4866 19.375 25.5725 19.3569 25.652 19.3219C25.7315 19.2868 25.8028 19.2356 25.8614 19.1714C25.9199 19.1073 25.9645 19.0316 25.9922 18.9493C26.0199 18.867 26.0301 18.7797 26.0222 18.6932L25.7747 15.9741C25.6886 14.9834 25.3478 14.0317 24.7855 13.2115C24.2232 12.3913 23.4584 11.7304 22.5653 11.2929C23.6082 10.7229 24.4316 9.82196 24.9057 8.73214C25.3797 7.64231 25.4774 6.42566 25.1833 5.27417C24.8892 4.12268 24.22 3.1019 23.2814 2.37289C22.3428 1.64389 21.1881 1.24817 19.9997 1.24817C18.8112 1.24817 17.6566 1.64389 16.718 2.37289C15.7794 3.1019 15.1102 4.12268 14.8161 5.27417C14.522 6.42566 14.6197 7.64231 15.0937 8.73214C15.5677 9.82196 16.3912 10.7229 17.4341 11.2929C16.541 11.7304 15.7762 12.3913 15.2139 13.2115C14.6516 14.0317 14.3108 14.9834 14.2247 15.9741L13.9775 18.6932C13.9696 18.7797 13.9798 18.8669 14.0075 18.9492C14.0352 19.0315 14.0797 19.1071 14.1383 19.1713C14.1968 19.2354 14.2681 19.2867 14.3475 19.3217C14.427 19.3568 14.5128 19.3749 14.5997 19.375ZM15.8997 6.59998C15.8997 5.78908 16.1401 4.99638 16.5907 4.32214C17.0412 3.6479 17.6815 3.12239 18.4307 2.81207C19.1799 2.50175 20.0042 2.42056 20.7996 2.57876C21.5949 2.73696 22.3254 3.12745 22.8988 3.70084C23.4722 4.27424 23.8627 5.00479 24.0209 5.80011C24.1791 6.59543 24.0979 7.4198 23.7876 8.16898C23.4773 8.91816 22.9518 9.55849 22.2775 10.009C21.6033 10.4595 20.8106 10.7 19.9997 10.7C18.9126 10.6989 17.8704 10.2666 17.1018 9.49789C16.3331 8.72923 15.9008 7.68703 15.8997 6.59998ZM15.4697 16.0875C15.5723 14.9569 16.094 13.9056 16.9321 13.1401C17.7703 12.3745 18.8645 11.9501 19.9997 11.9501C21.1349 11.9501 22.229 12.3745 23.0672 13.1401C23.9054 13.9056 24.4271 14.9569 24.5297 16.0875L24.7152 18.125H15.284L15.4697 16.0875ZM9.84056 30.6675C10.8834 30.0976 11.7067 29.1966 12.1807 28.1068C12.6547 27.0169 12.7523 25.8003 12.4582 24.6489C12.1641 23.4974 11.4949 22.4767 10.5563 21.7477C9.61769 21.0187 8.46309 20.623 7.27465 20.623C6.08622 20.623 4.93162 21.0187 3.99302 21.7477C3.05442 22.4767 2.38525 23.4974 2.09111 24.6489C1.79697 25.8003 1.89459 27.0169 2.36857 28.1068C2.84256 29.1966 3.66592 30.0976 4.70875 30.6675C3.81569 31.1051 3.05089 31.766 2.48855 32.5862C1.92622 33.4064 1.58545 34.3581 1.49931 35.3488L1.25212 38.0679C1.24419 38.1545 1.25439 38.2417 1.28207 38.3241C1.30975 38.4064 1.35431 38.4821 1.41289 38.5463C1.47148 38.6105 1.54281 38.6618 1.62232 38.6968C1.70183 38.7319 1.78778 38.75 1.87468 38.75H12.6747C12.7616 38.75 12.8475 38.7319 12.927 38.6969C13.0065 38.6618 13.0778 38.6106 13.1364 38.5464C13.1949 38.4823 13.2395 38.4066 13.2672 38.3243C13.2949 38.242 13.3051 38.1547 13.2972 38.0682L13.0501 35.3491C12.964 34.3583 12.6232 33.4066 12.0609 32.5863C11.4985 31.766 10.7337 31.1051 9.84056 30.6675ZM3.17468 25.975C3.17468 25.1641 3.41515 24.3714 3.86566 23.6971C4.31617 23.0229 4.95651 22.4974 5.70568 22.1871C6.45486 21.8768 7.27923 21.7956 8.07455 21.9538C8.86988 22.112 9.60043 22.5024 10.1738 23.0758C10.7472 23.6492 11.1377 24.3798 11.2959 25.1751C11.4541 25.9704 11.3729 26.7948 11.0626 27.544C10.7523 28.2932 10.2268 28.9335 9.55252 29.384C8.87828 29.8345 8.08559 30.075 7.27468 30.075C6.18764 30.0739 5.14543 29.6416 4.37677 28.8729C3.60811 28.1042 3.17579 27.062 3.17468 25.975ZM2.55887 37.5L2.74443 35.4625C2.84714 34.3319 3.36886 33.2806 4.20711 32.5151C5.04536 31.7495 6.13956 31.325 7.27478 31.325C8.41 31.325 9.5042 31.7495 10.3424 32.5151C11.1807 33.2806 11.7024 34.3319 11.8051 35.4625L11.9906 37.5H2.55887ZM38.5001 35.3491C38.4139 34.3584 38.0732 33.4067 37.5108 32.5865C36.9485 31.7663 36.1837 31.1054 35.2906 30.6679C36.3335 30.0979 37.1568 29.1969 37.6308 28.1071C38.1048 27.0172 38.2024 25.8006 37.9083 24.6492C37.6141 23.4977 36.945 22.477 36.0064 21.748C35.0678 21.019 33.9132 20.6233 32.7247 20.6233C31.5363 20.6233 30.3817 21.019 29.4431 21.748C28.5045 22.477 27.8353 23.4977 27.5412 24.6492C27.247 25.8006 27.3447 27.0172 27.8186 28.1071C28.2926 29.1969 29.116 30.0979 30.1588 30.6679C29.2657 31.1053 28.5008 31.7662 27.9385 32.5865C27.3761 33.4067 27.0353 34.3583 26.9491 35.3491L26.7019 38.0682C26.694 38.1548 26.7043 38.242 26.732 38.3243C26.7597 38.4067 26.8043 38.4823 26.8629 38.5465C26.9215 38.6107 26.9928 38.6619 27.0723 38.6969C27.1519 38.732 27.2378 38.75 27.3247 38.75H38.1247C38.2116 38.75 38.2975 38.7319 38.377 38.6969C38.4565 38.6618 38.5278 38.6106 38.5864 38.5464C38.6449 38.4823 38.6895 38.4066 38.7172 38.3243C38.7449 38.242 38.7551 38.1547 38.7472 38.0682L38.5001 35.3491ZM28.6247 25.975C28.6247 25.1641 28.8651 24.3714 29.3157 23.6971C29.7662 23.0229 30.4065 22.4974 31.1557 22.1871C31.9049 21.8768 32.7292 21.7956 33.5246 21.9538C34.3199 22.112 35.0504 22.5024 35.6238 23.0758C36.1972 23.6492 36.5877 24.3798 36.7459 25.1751C36.9041 25.9704 36.8229 26.7948 36.5126 27.544C36.2023 28.2932 35.6768 28.9335 35.0025 29.384C34.3283 29.8345 33.5356 30.075 32.7247 30.075C31.6377 30.0737 30.5956 29.6414 29.8269 28.8727C29.0583 28.1041 28.6259 27.062 28.6247 25.975ZM28.0087 37.5L28.1942 35.4625C28.297 34.3319 28.8187 33.2806 29.6569 32.5151C30.4952 31.7495 31.5894 31.325 32.7246 31.325C33.8598 31.325 34.954 31.7495 35.7923 32.5151C36.6305 33.2806 37.1522 34.3319 37.2549 35.4625L37.4405 37.5H28.0087ZM20.6247 27.1944V21.875C20.6247 21.7092 20.5588 21.5502 20.4416 21.433C20.3244 21.3158 20.1654 21.25 19.9997 21.25C19.8339 21.25 19.675 21.3158 19.5577 21.433C19.4405 21.5502 19.3747 21.7092 19.3747 21.875V27.1944L13.9907 31.3819C13.8599 31.4837 13.775 31.6333 13.7545 31.7978C13.734 31.9623 13.7797 32.1282 13.8815 32.259C13.9833 32.3898 14.1329 32.4748 14.2974 32.4953C14.4619 32.5158 14.6278 32.4701 14.7586 32.3682L19.9997 28.2916L25.2407 32.3682C25.3715 32.47 25.5374 32.5157 25.7019 32.4952C25.8664 32.4747 26.016 32.3897 26.1179 32.2589C26.2197 32.1281 26.2654 31.9622 26.2449 31.7977C26.2244 31.6332 26.1394 31.4836 26.0086 31.3818L20.6247 27.1944Z" fill="black"/>
</svg>
